HIERARCHY
ROOT Hips
{
	OFFSET 0.000000 0.000000 0.000000
	CHANNELS 6 Xposition Yposition Zposition Xrotation Yrotation Zrotation
	JOINT LeftUpLeg_virtual
	{
		OFFSET 0.000000 0.000000 0.000000
		CHANNELS 3 Xrotation Yrotation Zrotation
		JOINT LeftUpLeg
		{
			OFFSET 11.394100 -6.187798 -0.413800
			CHANNELS 3 Xrotation Yrotation Zrotation
			JOINT LeftLeg
			{
				OFFSET 0.430247 -32.302673 3.732800
				CHANNELS 3 Xrotation Yrotation Zrotation
				JOINT LeftFoot
				{
					OFFSET -0.430247 -48.264931 -6.423300
					CHANNELS 3 Xrotation Yrotation Zrotation
					JOINT LeftToeBase
					{
						OFFSET 4.230900 -16.068199 23.438400
						CHANNELS 3 Xrotation Yrotation Zrotation
						JOINT LeftToe_End
						{
							OFFSET 4.510700 0.695400 19.974600
							CHANNELS 3 Xrotation Yrotation Zrotation
							End Site
							{
								OFFSET 0 0 0
							}
						}
					}
				}
			}
		}
	}
	JOINT RightUpLeg_virtual
	{
		OFFSET 0.000000 0.000000 0.000000
		CHANNELS 3 Xrotation Yrotation Zrotation
		JOINT RightUpLeg
		{
			OFFSET -11.333700 -6.187798 -0.413800
			CHANNELS 3 Xrotation Yrotation Zrotation
			JOINT RightLeg
			{
				OFFSET -0.430392 -32.302628 3.733000
				CHANNELS 3 Xrotation Yrotation Zrotation
				JOINT RightFoot
				{
					OFFSET 0.430392 -48.264973 -6.423500
					CHANNELS 3 Xrotation Yrotation Zrotation
					JOINT RightToeBase
					{
						OFFSET -4.230900 -16.068199 23.438400
						CHANNELS 3 Xrotation Yrotation Zrotation
						JOINT RightToe_End
						{
							OFFSET -4.510700 0.695400 19.974600
							CHANNELS 3 Xrotation Yrotation Zrotation
							End Site
							{
								OFFSET 0 0 0
							}
						}
					}
				}
			}
		}
	}
	JOINT Spine_virtual
	{
		OFFSET 0.000000 0.000000 0.000000
		CHANNELS 3 Xrotation Yrotation Zrotation
		JOINT Spine
		{
			OFFSET -0.002400 12.777504 0.315300
			CHANNELS 3 Xrotation Yrotation Zrotation
			JOINT Spine1
			{
				OFFSET -0.002067 5.816869 0.032633
				CHANNELS 3 Xrotation Yrotation Zrotation
				JOINT Spine1_split
				{
					OFFSET -0.002067 5.816869 0.032633
					CHANNELS 3 Xrotation Yrotation Zrotation
					JOINT Spine2
					{
						OFFSET -0.002067 5.816869 0.032633
						CHANNELS 3 Xrotation Yrotation Zrotation
						JOINT Neck_virtual
						{
							OFFSET 0.000000 0.000000 0.000000
							CHANNELS 3 Xrotation Yrotation Zrotation
							JOINT Neck
							{
								OFFSET -0.003700 21.199493 -0.826900
								CHANNELS 3 Xrotation Yrotation Zrotation
								JOINT Head
								{
									OFFSET 0.000000 20.442200 4.834800
									CHANNELS 3 Xrotation Yrotation Zrotation
									JOINT HeadTop_End
									{
										OFFSET 0.000000 34.668396 4.968400
										CHANNELS 3 Xrotation Yrotation Zrotation
										End Site
										{
											OFFSET 0 0 0
										}
									}
								}
							}
						}
						JOINT LeftShoulder_virtual
						{
							OFFSET 0.000000 0.000000 0.000000
							CHANNELS 3 Xrotation Yrotation Zrotation
							JOINT LeftShoulder
							{
								OFFSET 3.288150 8.794197 -1.372250
								CHANNELS 3 Xrotation Yrotation Zrotation
								JOINT LeftShoulder_split
								{
									OFFSET 3.288150 8.794197 -1.372250
									CHANNELS 3 Xrotation Yrotation Zrotation
									JOINT LeftArm
									{
										OFFSET 11.953299 -2.279007 -0.146200
										CHANNELS 3 Xrotation Yrotation Zrotation
										JOINT LeftForeArm
										{
											OFFSET 18.448900 0.000000 0.000000
											CHANNELS 3 Xrotation Yrotation Zrotation
											JOINT LeftHand
											{
												OFFSET 29.527798 0.000000 0.000000
												CHANNELS 3 Xrotation Yrotation Zrotation
												End Site
												{
													OFFSET 0 0 0
												}
											}
										}
									}
								}
							}
						}
						JOINT RightShoulder_virtual
						{
							OFFSET 0.000000 0.000000 0.000000
							CHANNELS 3 Xrotation Yrotation Zrotation
							JOINT RightShoulder
							{
								OFFSET -3.249400 8.794197 -1.372250
								CHANNELS 3 Xrotation Yrotation Zrotation
								JOINT RightShoulder_split
								{
									OFFSET -3.249400 8.794197 -1.372250
									CHANNELS 3 Xrotation Yrotation Zrotation
									JOINT RightArm
									{
										OFFSET -11.953299 -2.279007 -0.146200
										CHANNELS 3 Xrotation Yrotation Zrotation
										JOINT RightForeArm
										{
											OFFSET -18.448900 0.000000 0.000000
											CHANNELS 3 Xrotation Yrotation Zrotation
											JOINT RightHand
											{
												OFFSET -29.527802 0.000000 0.000000
												CHANNELS 3 Xrotation Yrotation Zrotation
												End Site
												{
													OFFSET 0 0 0
												}
											}
										}
									}
								}
							}
						}
					}
				}
			}
		}
	}
}
MOTION
Frames: 4
Frame Time: 0.03333333
9.961474 100.755417 -3.344063 0.000000 0.000000 0.000000 -0.958218 -20.967333 -1.680829 -10.097249 5.150418 -0.719588 14.790600 10.540216 2.044565 -5.842696 18.266011 -0.372513 -1.953795 0.166765 -1.978729 0.000000 0.000000 0.000000 -0.020581 -21.020003 -1.746374 -14.085897 -7.004438 -11.781862 13.824157 3.435959 1.080950 -3.719394 -4.184983 8.425221 -7.014097 0.171929 0.879025 0.000000 0.000000 0.000000 -0.278545 -20.995479 -2.596472 3.718807 1.242825 -1.485748 0.547578 -0.050678 0.126104 1.117092 0.158905 0.233618 0.000000 0.000000 0.000000 1.411194 0.389874 -0.339593 1.198626 -1.041870 2.280492 13.436059 10.145400 5.771643 0.000000 0.000000 0.000000 0.891655 0.454499 -0.169603 2.250266 -2.963358 -11.621622 -0.331506 -0.991314 -1.987257 -7.113421 -18.982986 -56.070399 0.387281 -14.052102 0.399605 0.000000 0.000000 0.000000 0.956528 0.420717 -0.179826 2.423032 -2.565619 16.866584 -0.714817 2.921102 -2.861214 7.211005 2.695874 65.490545 1.746989 20.422674 1.490417 0.000000 0.000000 0.000000 
10.569221 100.734802 -3.018295 0.000000 0.000000 0.000000 -0.901599 -21.979781 -1.871644 -10.130665 5.382607 -0.862615 14.699303 10.517109 2.059518 -5.881544 18.976226 -0.141695 -2.002661 0.179986 -1.916508 0.000000 0.000000 0.000000 -0.013380 -21.957047 -1.936835 -14.282965 -7.012896 -11.728745 13.733828 3.634341 1.054450 -3.920585 -4.185236 8.662997 -6.801331 0.144598 0.743591 0.000000 0.000000 0.000000 -0.270627 -21.906336 -2.799387 3.469222 0.771313 -1.606374 0.489459 -0.140231 0.105162 1.173170 0.188831 0.227382 0.000000 0.000000 0.000000 1.380384 0.292792 -0.361011 1.195993 -1.145843 2.390247 13.720976 11.063388 6.096130 0.000000 0.000000 0.000000 0.844357 0.372266 -0.186520 2.198560 -3.180542 -11.494540 -0.421352 -0.934883 -1.998380 -7.400108 -20.634399 -56.344126 0.398181 -14.577622 0.416712 0.000000 0.000000 0.000000 0.920696 0.331847 -0.231433 2.486092 -3.124166 17.199805 -0.756032 2.842309 -2.913167 6.822694 3.343671 66.036612 1.769450 20.936162 1.495898 0.000000 0.000000 0.000000 
11.131315 100.729660 -2.721630 0.000000 0.000000 0.000000 -0.821387 -22.940159 -2.061673 -10.188850 5.636721 -0.954622 14.599941 10.511210 2.088978 -5.884142 19.642622 0.085948 -2.071314 0.193257 -1.860434 0.000000 0.000000 0.000000 0.001559 -22.850248 -2.131038 -14.488296 -7.058398 -11.633710 13.597192 3.715069 1.020846 -4.066707 -4.195706 8.812956 -6.534164 0.119306 0.601684 0.000000 0.000000 0.000000 -0.233913 -22.786691 -2.989629 3.243297 0.273557 -1.761614 0.432846 -0.224309 0.068198 1.238998 0.237143 0.222687 0.000000 0.000000 0.000000 1.345322 0.197552 -0.394029 1.201315 -1.247035 2.503820 14.003361 11.906020 6.512604 0.000000 0.000000 0.000000 0.803102 0.296026 -0.211952 2.134064 -3.448311 -11.296056 -0.503302 -0.881708 -2.001514 -7.548304 -22.379231 -56.637021 0.430569 -15.459215 0.446400 0.000000 0.000000 0.000000 0.899134 0.246504 -0.298604 2.549581 -3.712220 17.577714 -0.815509 2.730179 -2.928450 6.308260 4.090053 66.510456 1.798654 21.457654 1.499465 0.000000 0.000000 0.000000 
11.633919 100.744087 -2.454655 0.000000 0.000000 0.000000 -0.697934 -23.798138 -2.235114 -10.290278 5.881750 -1.007397 14.491604 10.508991 2.130827 -5.819970 20.241766 0.303135 -2.171543 0.206729 -1.811115 0.000000 0.000000 0.000000 0.065726 -23.661073 -2.310404 -14.669474 -7.098223 -11.512638 13.350486 3.691413 0.973270 -4.092791 -4.199948 8.942530 -6.313131 0.094103 0.474373 0.000000 0.000000 0.000000 -0.146137 -23.591403 -3.152515 3.029541 -0.247310 -1.970785 0.374575 -0.305369 0.010759 1.272125 0.293991 0.240587 0.000000 0.000000 0.000000 1.300108 0.102751 -0.443983 1.212974 -1.346755 2.643829 14.297041 12.660918 7.014180 0.000000 0.000000 0.000000 0.763196 0.224668 -0.250878 2.056849 -3.758713 -11.015589 -0.571470 -0.827885 -1.986422 -7.539767 -24.182387 -56.977151 0.492438 -16.757166 0.486757 0.000000 0.000000 0.000000 0.885693 0.163358 -0.385485 2.616437 -4.330302 17.985396 -0.889021 2.581480 -2.914540 5.740949 4.898155 66.893794 1.829826 21.956300 1.510899 0.000000 0.000000 0.000000 
